<?xml version="1.0" encoding="UTF-8"?>
<svg id="Layer_1" data-name="Layer 1" xmlns="http://www.w3.org/2000/svg" width="465" height="465" viewBox="0 0 465 465">
  <rect x="-.18" y=".18" width="465" height="465" fill="#01321d"/>
  <path d="M152.06,376.85l38.79-28.75c-51.63,1.72-96.58-26.26-140.82-48.6,8.59-.51,70.93-3.94,81.06-4.5-36.14-27.24-63.76-64.21-91.46-99.59l106.22,44.24c-20.82-38.15-31.06-79.08-37.29-121.84l74.62,75.59c-7.06-46.92,25.39-123.57,47.88-177.25,24.96,51.47,50.13,110.8,52.01,169.66l70.07-69.34c-6.59,42.14-15.02,85.28-35.4,123.18l104.74-44.26c-26.56,35.36-54.94,73.22-90.72,99.59l76.34,4.41,2.33.12c-42.02,23.51-88.46,50.2-138.43,48.57l37.12,26.52,3.47,2.23-65.22-.12-15.34-10.86-15.49,10.98h-64.47ZM235.23,314.18c14.71-67.61,68.51-117.41,4.86-250.27-2.39-6.17-6.88-17.63-8.18-21.21-.01-.03,0-.03-1.21,0-56.8,137.45-45.61,147.28-3.54,271.76,0,0-.89-57.76-.17-81.06l-20.49-20.82-.3-44.06c-13.04-4.64-5.3-27.17,8.78-19.74,8.72,4.71,7.85,16.02-.52,19.7v41.95l12.54,13v-104.38c-22.55-14.23,6.77-38.51,17.14-17.14,3.96,13.65-8.04,17.09-8.04,17.09l-.87,195.18ZM230.5,102.57c-4.81,1.29-2.83,9.54,2.63,7.88,4.51-1.37,2.58-9.28-2.63-7.88ZM247.37,308.3c54-55.02,75.1-83.33,89.54-160.85l-55.22,56.53c-11.24,32.67-24.3,71.24-34.32,104.32ZM215.31,305.6l-32.53-98.91h0l-29.65-29.42c-8.92-9.1-20.08-19.06-29-28.15,8.31,34.73,20.7,71.46,39.9,101.8,17.09,18.23,34.18,36.46,51.28,54.69M213.54,161.28c4.41-4.65-3.85-11.7-7.23-6.13s3.48,10.08,7.23,6.13ZM223.32,329.65c-59.94-63.94-64.74-78.95-150.48-109.9,39.21,55.96,87.82,85.7,150.48,109.9ZM388.55,220.49c-84.96,31.45-88.61,43.79-148.27,108.43,63.18-24.88,109.28-50.68,148.27-108.43ZM210.78,337.03c-19.32-12.29-42.06-19-62.52-29.31-18.66-2.52-37.51.21-56.24.55,24.56,14.6,57.58,26.42,85.94,29.49,10.95.71,21.88-1.04,32.82-.74ZM370.11,308.27c-16.51-.21-34.09-2.77-50.56-1.51-6.89.52-8.85,2.86-14.59,5.32-17.71,8.26-37.24,14.42-53.61,24.94,41.33,4.59,83.72-6.64,118.76-28.75ZM253.59,348.59h-42.47l-28.37,20.16h28.4l20.65-14.51,20.81,14.36,28.7.16-27.72-20.17ZM231.95,377.11" fill="#35c85c" stroke="#35c85c" stroke-miterlimit="10"/>
  <g>
    <path d="M69.08,423.12l-1.75-5.34h-9.42l-1.87,5.34h-3.87l10.29-25.67h.92l9.54,25.67h-3.84ZM62.76,404.08l-3.92,11.15h7.52l-3.6-11.15Z" fill="#35c85c"/>
    <path d="M93.13,399.55l-1.44,2.85c-1.74-1.29-3.45-1.94-5.12-1.94-2.65,0-4.74.93-6.28,2.8-1.53,1.87-2.3,4.34-2.3,7.42s.75,5.29,2.26,7.07c1.5,1.79,3.55,2.68,6.15,2.68,1.84,0,3.34-.55,4.48-1.66v-5.93h-3.51v-2.94h6.97v11.03c-.92.78-2.21,1.42-3.85,1.89-1.65.48-3.25.72-4.81.72-3.49,0-6.25-1.18-8.27-3.55-2.02-2.37-3.03-5.52-3.03-9.45s1.11-7.1,3.33-9.53c2.22-2.44,5.21-3.66,8.98-3.66,2.64,0,4.79.73,6.45,2.2Z" fill="#35c85c"/>
    <path d="M113.91,423.12l-1.75-5.34h-9.42l-1.87,5.34h-3.87l10.29-25.67h.92l9.54,25.67h-3.84ZM107.59,404.08l-3.92,11.15h7.52l-3.6-11.15Z" fill="#35c85c"/>
    <path d="M126.12,423.46h-1.75l-9.44-25.67h3.84l6.52,18.65,6.28-18.65h3.72l-9.16,25.67Z" fill="#35c85c"/>
    <path d="M141.56,400.9v7.04h8.37v2.94h-8.37v9.13h11.48v3.11h-14.94v-25.33h15.13v3.11h-11.67Z" fill="#35c85c"/>
    <path d="M184.11,423.46l-13.09-18.52v18.17h-3.29v-25.33h1.38l12.74,17.51v-17.51h3.29v25.67h-1.04Z" fill="#35c85c"/>
    <path d="M193.79,400.9v7.04h8.37v2.94h-8.37v9.13h11.48v3.11h-14.94v-25.33h15.13v3.11h-11.67Z" fill="#35c85c"/>
    <path d="M228.76,423.46h-1.09l-6.03-17.46-5.64,17.46h-1.09l-7.99-25.67h3.6l5.08,17.69,5.57-17.69h1.21l5.5,17.65,5.17-17.65h3.6l-7.88,25.67Z" fill="#35c85c"/>
    <path d="M258.95,423.46h-1.75l-9.44-25.67h3.84l6.52,18.65,6.28-18.65h3.72l-9.16,25.67Z" fill="#35c85c"/>
    <path d="M274.39,400.9v7.04h8.37v2.94h-8.37v9.13h11.48v3.11h-14.94v-25.33h15.13v3.11h-11.67Z" fill="#35c85c"/>
    <path d="M306.27,423.46l-13.09-18.52v18.17h-3.29v-25.33h1.38l12.74,17.51v-17.51h3.29v25.67h-1.04Z" fill="#35c85c"/>
    <path d="M321.73,400.9v22.22h-3.46v-22.22h-8.06v-3.11h19.93v3.11h-8.42Z" fill="#35c85c"/>
    <path d="M333.05,397.79h3.46v17.34c0,1.54.49,2.82,1.47,3.81s2.28,1.5,3.89,1.5c1.71,0,3.05-.48,4.03-1.45.98-.97,1.47-2.28,1.47-3.94v-17.25h3.46v17.62c0,2.56-.8,4.56-2.39,5.99-1.6,1.44-3.77,2.15-6.53,2.15s-5.02-.7-6.55-2.11-2.3-3.42-2.3-6.05v-17.6Z" fill="#35c85c"/>
    <path d="M370.07,423.12l-6.76-10.88c-.77,0-1.99-.06-3.67-.17v11.05h-3.46v-25.33c.13,0,1.02-.04,2.69-.13,1.67-.09,2.88-.13,3.64-.13,6.09,0,9.13,2.42,9.13,7.26,0,1.59-.49,3.02-1.47,4.3-.98,1.27-2.14,2.07-3.49,2.38l7.35,11.65h-3.96ZM359.64,400.9v8.23c.83.12,1.64.17,2.42.17,2.07,0,3.58-.33,4.53-1,.94-.67,1.42-1.86,1.42-3.58,0-1.42-.51-2.44-1.52-3.06-1.01-.62-2.62-.93-4.81-.93-.35,0-1.03.06-2.04.17Z" fill="#35c85c"/>
    <path d="M380.08,400.9v7.04h8.37v2.94h-8.37v9.13h11.48v3.11h-14.94v-25.33h15.13v3.11h-11.67Z" fill="#35c85c"/>
    <path d="M394.44,421.96l1.26-3.18c.65.47,1.45.87,2.41,1.18.96.32,1.82.48,2.58.48,1.35,0,2.43-.37,3.25-1.11s1.23-1.68,1.23-2.82c0-.85-.23-1.64-.68-2.38-.46-.73-1.6-1.53-3.43-2.39l-2.04-.95c-1.73-.81-2.94-1.76-3.62-2.87s-1.03-2.44-1.03-3.99c0-1.89.67-3.46,2.01-4.7,1.34-1.24,3.05-1.87,5.15-1.87,2.8,0,4.75.46,5.84,1.37l-1.02,3.01c-.46-.33-1.16-.66-2.11-.97-.94-.31-1.82-.47-2.63-.47-1.18,0-2.1.33-2.77,1-.67.67-1.01,1.53-1.01,2.58,0,.65.12,1.23.36,1.76.24.53.58.97,1.01,1.33s1.32.86,2.65,1.5l2.07.99c1.73.82,2.94,1.79,3.64,2.93.7,1.13,1.05,2.58,1.05,4.33,0,1.9-.76,3.52-2.29,4.84-1.53,1.33-3.57,1.99-6.13,1.99-2.25,0-4.17-.53-5.76-1.59Z" fill="#35c85c"/>
  </g>
  <g>
    <path d="M118.5,448.32l-.87-2.67h-4.71l-.93,2.67h-1.94l5.14-12.84h.46l4.77,12.84h-1.92ZM115.34,438.8l-1.96,5.58h3.76l-1.8-5.58Z" fill="#35c85c"/>
    <path d="M122.06,448.32v-12.66h1.73v12.66h-1.73Z" fill="#35c85c"/>
    <path d="M133.74,437.21v3.52h4.18v1.47h-4.18v4.56h5.74v1.56h-7.47v-12.66h7.56v1.56h-5.83Z" fill="#35c85c"/>
    <path d="M149.68,448.49l-6.54-9.26v9.08h-1.64v-12.66h.69l6.37,8.76v-8.76h1.64v12.84h-.52Z" fill="#35c85c"/>
    <path d="M161.57,436.54l-.72,1.43c-.87-.64-1.72-.97-2.56-.97-1.33,0-2.37.47-3.14,1.4-.77.93-1.15,2.17-1.15,3.71s.38,2.64,1.13,3.54c.75.89,1.78,1.34,3.07,1.34.92,0,1.67-.28,2.24-.83v-2.96h-1.75v-1.47h3.48v5.52c-.46.39-1.1.71-1.93.95s-1.62.36-2.4.36c-1.75,0-3.12-.59-4.14-1.78-1.01-1.18-1.52-2.76-1.52-4.72s.55-3.55,1.66-4.77,2.61-1.83,4.49-1.83c1.32,0,2.39.37,3.22,1.1Z" fill="#35c85c"/>
    <path d="M165.07,448.32v-12.66h1.73v12.66h-1.73Z" fill="#35c85c"/>
    <path d="M177.88,448.49l-6.54-9.26v9.08h-1.64v-12.66h.69l6.37,8.76v-8.76h1.64v12.84h-.52Z" fill="#35c85c"/>
    <path d="M182.72,437.21v3.52h4.18v1.47h-4.18v4.56h5.74v1.56h-7.47v-12.66h7.56v1.56h-5.83Z" fill="#35c85c"/>
    <path d="M192.21,437.21v3.52h4.18v1.47h-4.18v4.56h5.74v1.56h-7.47v-12.66h7.56v1.56h-5.83Z" fill="#35c85c"/>
    <path d="M206.99,448.32l-3.38-5.44c-.39,0-1-.03-1.83-.09v5.52h-1.73v-12.66c.06,0,.51-.02,1.34-.06.83-.04,1.44-.07,1.82-.07,3.04,0,4.56,1.21,4.56,3.63,0,.79-.25,1.51-.73,2.15s-1.07,1.03-1.75,1.19l3.67,5.83h-1.98ZM201.78,437.21v4.12c.42.06.82.09,1.21.09,1.04,0,1.79-.17,2.26-.5s.71-.93.71-1.79c0-.71-.25-1.22-.76-1.53-.51-.31-1.31-.47-2.4-.47-.17,0-.51.03-1.02.09Z" fill="#35c85c"/>
    <path d="M210.57,448.32v-12.66h1.73v12.66h-1.73Z" fill="#35c85c"/>
    <path d="M223.38,448.49l-6.54-9.26v9.08h-1.64v-12.66h.69l6.37,8.76v-8.76h1.64v12.84h-.52Z" fill="#35c85c"/>
    <path d="M235.26,436.54l-.72,1.43c-.87-.64-1.72-.97-2.56-.97-1.33,0-2.37.47-3.14,1.4-.77.93-1.15,2.17-1.15,3.71s.38,2.64,1.13,3.54c.75.89,1.78,1.34,3.07,1.34.92,0,1.67-.28,2.24-.83v-2.96h-1.75v-1.47h3.48v5.52c-.46.39-1.1.71-1.93.95s-1.62.36-2.4.36c-1.75,0-3.12-.59-4.14-1.78-1.01-1.18-1.52-2.76-1.52-4.72s.55-3.55,1.66-4.77,2.61-1.83,4.49-1.83c1.32,0,2.39.37,3.22,1.1Z" fill="#35c85c"/>
    <path d="M245.52,437.21v3.52h4.45v1.47h-4.45v6.12h-1.73v-12.66h7.82v1.56h-6.09Z" fill="#35c85c"/>
    <path d="M252.48,441.88c0-1.83.46-3.37,1.38-4.6.92-1.23,2.16-1.85,3.72-1.85,1.76,0,3.1.57,4.04,1.7.94,1.13,1.4,2.72,1.4,4.75s-.47,3.71-1.41,4.89-2.29,1.77-4.04,1.77c-1.6,0-2.85-.62-3.75-1.87-.9-1.24-1.35-2.84-1.35-4.79ZM254.3,441.88c0,1.45.29,2.67.86,3.64.57.97,1.38,1.46,2.42,1.46,1.18,0,2.08-.45,2.7-1.34s.93-2.15.93-3.76c0-3.26-1.21-4.89-3.63-4.89-1.07,0-1.89.44-2.45,1.31s-.84,2.07-.84,3.58Z" fill="#35c85c"/>
    <path d="M272.05,448.32l-3.38-5.44c-.39,0-1-.03-1.83-.09v5.52h-1.73v-12.66c.06,0,.51-.02,1.34-.06.83-.04,1.44-.07,1.82-.07,3.04,0,4.56,1.21,4.56,3.63,0,.79-.25,1.51-.73,2.15s-1.07,1.03-1.75,1.19l3.67,5.83h-1.98ZM266.83,437.21v4.12c.42.06.82.09,1.21.09,1.04,0,1.79-.17,2.26-.5s.71-.93.71-1.79c0-.71-.25-1.22-.76-1.53-.51-.31-1.31-.47-2.4-.47-.17,0-.51.03-1.02.09Z" fill="#35c85c"/>
    <path d="M284.27,448.32h-3.61v-12.66c1.54-.08,2.65-.11,3.33-.11,1.25,0,2.22.27,2.9.81.69.54,1.03,1.31,1.03,2.31,0,.59-.22,1.12-.66,1.61s-.92.79-1.45.91c1,.24,1.73.64,2.19,1.2.46.56.69,1.32.69,2.28,0,1.11-.41,2-1.22,2.66s-1.88.99-3.19.99ZM282.38,437.04v3.64c.36.03.81.05,1.35.05,1.64,0,2.46-.67,2.46-2,0-1.17-.75-1.75-2.26-1.75-.58,0-1.09.02-1.55.06ZM282.38,442.02v4.83c.59.06,1.05.09,1.37.09,1.08,0,1.87-.2,2.37-.61s.75-1.05.75-1.94c0-.82-.24-1.43-.71-1.82-.48-.39-1.27-.59-2.38-.59l-1.39.04Z" fill="#35c85c"/>
    <path d="M290.68,435.66h1.73v8.67c0,.77.25,1.41.73,1.91.49.5,1.14.75,1.95.75.85,0,1.52-.24,2.01-.73.49-.48.73-1.14.73-1.97v-8.63h1.73v8.81c0,1.28-.4,2.28-1.2,3-.8.72-1.89,1.08-3.26,1.08s-2.51-.35-3.28-1.05-1.15-1.71-1.15-3.03v-8.8Z" fill="#35c85c"/>
    <path d="M301.58,447.74l.63-1.59c.32.24.73.43,1.21.59.48.16.91.24,1.29.24.67,0,1.22-.18,1.62-.55.41-.37.61-.84.61-1.41,0-.43-.11-.82-.34-1.19-.23-.37-.8-.76-1.72-1.2l-1.02-.47c-.86-.4-1.47-.88-1.81-1.44-.34-.55-.51-1.22-.51-2,0-.94.33-1.73,1-2.35.67-.62,1.53-.93,2.58-.93,1.4,0,2.37.23,2.92.68l-.51,1.5c-.23-.17-.58-.33-1.05-.48-.47-.16-.91-.23-1.31-.23-.59,0-1.05.17-1.39.5-.34.33-.51.76-.51,1.29,0,.32.06.62.18.88.12.26.29.49.51.67.22.18.66.43,1.33.75l1.04.49c.86.41,1.47.9,1.82,1.46.35.57.52,1.29.52,2.17,0,.95-.38,1.76-1.15,2.42-.76.66-1.78.99-3.06.99-1.12,0-2.08-.26-2.88-.79Z" fill="#35c85c"/>
    <path d="M310.97,448.32v-12.66h1.73v12.66h-1.73Z" fill="#35c85c"/>
    <path d="M323.78,448.49l-6.54-9.26v9.08h-1.64v-12.66h.69l6.37,8.76v-8.76h1.64v12.84h-.52Z" fill="#35c85c"/>
    <path d="M328.62,437.21v3.52h4.18v1.47h-4.18v4.56h5.74v1.56h-7.47v-12.66h7.56v1.56h-5.83Z" fill="#35c85c"/>
    <path d="M335.81,447.74l.63-1.59c.32.24.73.43,1.21.59.48.16.91.24,1.29.24.67,0,1.22-.18,1.62-.55.41-.37.61-.84.61-1.41,0-.43-.11-.82-.34-1.19-.23-.37-.8-.76-1.72-1.2l-1.02-.47c-.86-.4-1.47-.88-1.81-1.44-.34-.55-.51-1.22-.51-2,0-.94.33-1.73,1-2.35.67-.62,1.53-.93,2.58-.93,1.4,0,2.37.23,2.92.68l-.51,1.5c-.23-.17-.58-.33-1.05-.48-.47-.16-.91-.23-1.31-.23-.59,0-1.05.17-1.39.5-.34.33-.51.76-.51,1.29,0,.32.06.62.18.88.12.26.29.49.51.67.22.18.66.43,1.33.75l1.04.49c.86.41,1.47.9,1.82,1.46.35.57.52,1.29.52,2.17,0,.95-.38,1.76-1.15,2.42-.76.66-1.78.99-3.06.99-1.12,0-2.08-.26-2.88-.79Z" fill="#35c85c"/>
    <path d="M344.32,447.74l.63-1.59c.32.24.73.43,1.21.59.48.16.91.24,1.29.24.67,0,1.22-.18,1.62-.55.41-.37.61-.84.61-1.41,0-.43-.11-.82-.34-1.19-.23-.37-.8-.76-1.72-1.2l-1.02-.47c-.86-.4-1.47-.88-1.81-1.44-.34-.55-.51-1.22-.51-2,0-.94.33-1.73,1-2.35.67-.62,1.53-.93,2.58-.93,1.4,0,2.37.23,2.92.68l-.51,1.5c-.23-.17-.58-.33-1.05-.48-.47-.16-.91-.23-1.31-.23-.59,0-1.05.17-1.39.5-.34.33-.51.76-.51,1.29,0,.32.06.62.18.88.12.26.29.49.51.67.22.18.66.43,1.33.75l1.04.49c.86.41,1.47.9,1.82,1.46.35.57.52,1.29.52,2.17,0,.95-.38,1.76-1.15,2.42-.76.66-1.78.99-3.06.99-1.12,0-2.08-.26-2.88-.79Z" fill="#35c85c"/>
  </g>
</svg>