<?xml version="1.0" encoding="UTF-8"?>
<svg id="Layer_1" data-name="Layer 1" xmlns="http://www.w3.org/2000/svg" width="465" height="465" viewBox="0 0 465 465">
  <path d="M136.58,465.2l47.12-37.03c-62.71,2.22-117.31-33.83-171.04-62.61,10.43-.66,86.15-5.07,98.46-5.8C67.23,324.65,33.68,277.03.03,231.46l129.02,57c-25.29-49.15-37.73-101.87-45.29-156.96l90.63,97.38c-8.57-60.44,30.84-159.19,58.16-228.34,30.32,66.31,60.89,142.74,63.17,218.56l85.1-89.32c-8.01,54.28-18.24,109.87-42.99,158.69l127.21-57.01c-32.26,45.55-66.73,94.32-110.19,128.3l92.72,5.68,2.83.16c-51.04,30.29-107.44,64.67-168.13,62.58l45.09,34.16,4.21,2.87-79.22-.15-18.63-13.99-18.82,14.15h-78.31ZM237.59,384.46c17.86-87.1,83.21-151.25,5.91-322.4-2.9-7.95-8.35-22.71-9.94-27.32-.01-.04,0-.04-1.47,0-68.99,177.07-55.4,189.73-4.3,350.09,0,0-1.08-74.41-.21-104.42l-24.89-26.82-.36-56.76c-15.84-5.98-6.44-35.01,10.66-25.44,10.59,6.06,9.53,20.64-.63,25.38v54.04l15.23,16.74v-134.46c-27.4-18.34,8.23-49.61,20.82-22.08,4.8,17.59-9.77,22.02-9.77,22.02l-1.06,251.43ZM231.84,111.86c-5.84,1.66-3.44,12.3,3.2,10.16,5.47-1.76,3.13-11.95-3.2-10.16ZM252.34,376.89c65.58-70.87,91.21-107.35,108.76-207.21l-67.07,72.82c-13.65,42.09-29.51,91.78-41.69,134.39ZM213.4,373.41l-39.51-127.43h0l-36.01-37.9c-10.83-11.72-24.39-24.55-35.22-36.27,10.09,44.74,25.15,92.06,48.46,131.14,20.76,23.48,41.52,46.97,62.28,70.45M211.24,187.49c5.35-5.99-4.68-15.07-8.78-7.9s4.23,12.99,8.78,7.9ZM223.12,404.39c-72.8-82.37-78.63-101.71-182.78-141.57,47.62,72.08,106.66,110.41,182.78,141.57ZM423.81,263.76c-103.2,40.51-107.63,56.41-180.08,139.68,76.74-32.05,132.73-65.29,180.08-139.68ZM207.89,413.89c-23.47-15.83-51.09-24.47-75.94-37.75-22.66-3.25-45.56.27-68.31.71,29.83,18.81,69.94,34.03,104.39,37.99,13.3.92,26.58-1.34,39.86-.95ZM401.42,376.85c-20.05-.27-41.41-3.56-61.41-1.95-8.37.68-10.75,3.69-17.73,6.86-21.51,10.64-45.23,18.57-65.12,32.13,50.2,5.91,101.68-8.56,144.25-37.04ZM259.89,428.79h-51.58l-34.46,25.97h34.49l25.08-18.69,25.28,18.5,34.86.21-33.67-25.98ZM233.61,465.53" fill="#35c85c" stroke="#35c85c" stroke-miterlimit="10"/>
</svg>