<?xml version="1.0" encoding="UTF-8"?>
<svg id="Layer_1" data-name="Layer 1" xmlns="http://www.w3.org/2000/svg" width="465" height="465" viewBox="0 0 465 465">
  <path d="M136.58,465.36l47.12-37.06c-62.71,2.22-117.31-33.85-171.04-62.66,10.43-.66,86.15-5.08,98.46-5.8C67.23,324.71,33.68,277.05.03,231.45l129.02,57.04c-25.29-49.19-37.73-101.94-45.29-157.08l90.63,97.45c-8.57-60.49,30.84-159.31,58.16-228.51,30.32,66.36,60.89,142.84,63.17,218.72l85.1-89.39c-8.01,54.32-18.24,109.95-42.99,158.81l127.21-57.05c-32.26,45.58-66.73,94.39-110.19,128.39l92.72,5.69,2.83.16c-51.04,30.31-107.44,64.72-168.13,62.62l45.09,34.18,4.21,2.87-79.22-.15-18.63-14-18.82,14.16h-78.31Z" fill="#01321d" stroke="#00131d" stroke-miterlimit="10"/>
</svg>