<?xml version="1.0" encoding="UTF-8"?>
<svg id="Layer_1" data-name="Layer 1" xmlns="http://www.w3.org/2000/svg" width="465" height="465" viewBox="0 0 465 465">
  <path d="M136.58,465.36l47.12-37.06c-62.71,2.22-117.31-33.85-171.04-62.66,10.43-.66,86.15-5.08,98.46-5.8C67.23,324.71,33.68,277.05.03,231.45l129.02,57.04c-25.29-49.19-37.73-101.94-45.29-157.08l90.63,97.45c-8.57-60.49,30.84-159.31,58.16-228.51,30.32,66.36,60.89,142.84,63.17,218.72l85.1-89.39c-8.01,54.32-18.24,109.95-42.99,158.81l127.21-57.05c-32.26,45.58-66.73,94.39-110.19,128.39l92.72,5.69,2.83.16c-51.04,30.31-107.44,64.72-168.13,62.62l45.09,34.18,4.21,2.87-79.22-.15-18.63-14-18.82,14.16h-78.31Z" fill="#35c85c" stroke="#35c85c" stroke-miterlimit="10"/>
  <path d="M237.59,384.57c17.86-87.16,83.21-151.36,5.91-322.64-2.9-7.95-8.35-22.73-9.94-27.34-.01-.04,0-.04-1.47,0-68.99,177.2-55.4,189.87-4.3,350.34,0,0-1.08-74.46-.21-104.5l-24.89-26.84-.36-56.8c-15.84-5.99-6.44-35.03,10.66-25.45,10.59,6.07,9.53,20.66-.63,25.4v54.08l15.23,16.76v-134.56c-27.4-18.35,8.23-49.64,20.82-22.1,4.8,17.6-9.77,22.03-9.77,22.03l-1.06,251.62Z" fill="#01321d" stroke="#35c85c" stroke-miterlimit="10"/>
  <path d="M231.84,111.76c-5.84,1.66-3.44,12.3,3.2,10.16,5.47-1.77,3.13-11.96-3.2-10.16Z" fill="#35c85c" stroke="#35c85c" stroke-miterlimit="10"/>
  <path d="M252.34,376.99c65.58-70.92,91.21-107.43,108.76-207.36l-67.07,72.87c-13.65,42.12-29.51,91.85-41.69,134.48Z" fill="#01321d" stroke="#35c85c" stroke-miterlimit="10"/>
  <path d="M213.4,373.5l-39.51-127.52h0l-36.01-37.93c-10.83-11.73-24.39-24.57-35.22-36.3,10.09,44.78,25.15,92.12,48.46,131.24,20.76,23.5,41.52,47,62.28,70.51" fill="#01321d" stroke="#35c85c" stroke-miterlimit="10"/>
  <path d="M211.24,187.45c5.35-6-4.68-15.08-8.78-7.9-3.99,6.99,4.23,13,8.78,7.9Z" fill="#35c85c" stroke="#35c85c" stroke-miterlimit="10"/>
  <path d="M223.12,404.51c-72.8-82.43-78.63-101.78-182.78-141.68,47.62,72.14,106.66,110.49,182.78,141.68Z" fill="#01321d" stroke="#35c85c" stroke-miterlimit="10"/>
  <path d="M423.81,263.78c-103.2,40.54-107.63,56.45-180.08,139.78,76.74-32.07,132.73-65.34,180.08-139.78Z" fill="#01321d" stroke="#35c85c" stroke-miterlimit="10"/>
  <path d="M207.89,414.02c-23.47-15.84-51.09-24.49-75.94-37.78-22.66-3.25-45.56.27-68.31.71,29.83,18.83,69.94,34.06,104.39,38.02,13.3.92,26.58-1.34,39.86-.95Z" fill="#01321d" stroke="#35c85c" stroke-miterlimit="10"/>
  <path d="M401.42,376.95c-20.05-.27-41.41-3.56-61.41-1.95-8.37.68-10.75,3.69-17.73,6.86-21.51,10.65-45.23,18.59-65.12,32.16,50.2,5.91,101.68-8.57,144.25-37.07Z" fill="#01321d" stroke="#35c85c" stroke-miterlimit="10"/>
  <polygon points="259.89 428.93 208.31 428.93 173.85 454.92 208.34 454.92 233.42 436.21 258.7 454.72 293.56 454.93 259.89 428.93" fill="#01321d" stroke="#35c85c" stroke-miterlimit="10"/>
</svg>